# This file uses centimeters as units for non-parametric coordinates.

mtllib mushrooms.mtl
g default
v -8.383947 -0.063888 -0.357576
v -8.741523 -0.063888 -0.505688
v -9.099098 -0.063888 -0.357576
v -9.247211 -0.063888 0.000000
v -9.099098 -0.063888 0.357576
v -8.741523 -0.063888 0.505688
v -8.383947 -0.063888 0.357576
v -8.235834 -0.063888 0.000000
v -8.476776 0.133333 -0.264746
v -8.741523 0.133333 -0.374407
v -9.006269 0.133333 -0.264746
v -9.115931 0.133333 0.000000
v -9.006269 0.133333 0.264746
v -8.741523 0.133333 0.374407
v -8.476776 0.133333 0.264746
v -8.367115 0.133333 0.000000
v -8.741523 0.400000 0.000000
v -8.085248 -0.534741 0.000000
v -8.277467 -0.534741 -0.464056
v -8.277467 -0.534741 0.464056
v -8.741523 -0.534741 0.656274
v -9.205579 -0.534741 0.464056
v -9.397797 -0.534741 0.000000
v -9.205579 -0.534741 -0.464056
v -8.741523 -0.534741 -0.656274
v -8.267179 -0.245012 -0.474344
v -8.214938 -0.393349 -0.526584
v -8.741523 -0.245012 -0.670824
v -8.741523 -0.393349 -0.744703
v -9.215867 -0.245012 -0.474344
v -9.268107 -0.393349 -0.526584
v -9.412347 -0.245012 0.000000
v -9.486225 -0.393349 0.000000
v -9.215867 -0.245012 0.474344
v -9.268107 -0.393349 0.526584
v -8.741523 -0.245012 0.670824
v -8.741523 -0.393349 0.744703
v -8.267179 -0.245012 0.474344
v -8.214938 -0.393349 0.526584
v -8.070699 -0.245012 0.000000
v -7.996819 -0.393349 0.000000
vt 0.431294 0.231856
vt 0.456544 0.267886
vt 0.429937 0.281351
vt 0.404102 0.255862
vt 0.464878 0.310645
vt 0.438654 0.311953
vt 0.455793 0.350340
vt 0.433078 0.341351
vt 0.432860 0.382123
vt 0.415911 0.365142
vt 0.399207 0.403668
vt 0.389423 0.380177
vt 0.356138 0.413650
vt 0.355054 0.382707
vt 0.281594 0.203647
vt 0.349166 0.197837
vt 0.353460 0.241234
vt 0.302104 0.256798
vt 0.164894 0.845109
vt 0.228227 0.818875
vt 0.291560 0.845109
vt 0.317793 0.908442
vt 0.291560 0.971775
vt 0.228227 0.998008
vt 0.164894 0.971775
vt 0.138661 0.908442
vt 0.375158 0.322191
vt 0.447245 0.202523
vt 0.482830 0.255223
vt 0.491040 0.310720
vt 0.478019 0.359992
vt 0.449590 0.398701
vt 0.409983 0.425696
vt 0.358308 0.442609
vt 0.273640 0.152082
vt 0.365554 0.160937
vt 0.461444 0.184494
vt 0.500897 0.247659
vt 0.477285 0.165791
vt 0.520195 0.239998
vt 0.508364 0.311443
vt 0.526629 0.312450
vt 0.492445 0.366686
vt 0.507548 0.373853
vt 0.460403 0.409488
vt 0.471682 0.420807
vt 0.417485 0.439424
vt 0.425460 0.453566
vt 0.362486 0.461001
vt 0.373413 0.476383
vt 0.274586 0.118478
vt 0.376068 0.136200
vt 0.288495 0.087896
vt 0.387213 0.110214
vn 0.547021 0.633668 -0.547022
vn -0.000000 0.633667 -0.773606
vn -0.000000 0.659856 -0.751392
vn 0.531314 0.659857 -0.531314
vn -0.547022 0.633667 -0.547023
vn -0.531314 0.659856 -0.531315
vn -0.773606 0.633667 0.000000
vn -0.751392 0.659856 0.000000
vn -0.547022 0.633667 0.547022
vn -0.531314 0.659856 0.531314
vn 0.000000 0.633667 0.773606
vn 0.000000 0.659856 0.751392
vn 0.547022 0.633667 0.547022
vn 0.531314 0.659856 0.531314
vn 0.773606 0.633668 0.000000
vn 0.751391 0.659857 0.000000
vn 0.057910 -0.996641 -0.057911
vn 0.081898 -0.996641 0.000000
vn 0.057910 -0.996641 0.057911
vn 0.000000 -0.996641 0.081898
vn -0.057911 -0.996641 0.057910
vn -0.081898 -0.996641 -0.000000
vn -0.057911 -0.996641 -0.057910
vn -0.000000 -0.996641 -0.081898
vn -0.000000 1.000000 -0.000000
vn 0.585515 0.560664 -0.585515
vn -0.000000 0.560663 -0.828044
vn -0.585515 0.560664 -0.585515
vn -0.828043 0.560665 0.000000
vn -0.585515 0.560664 0.585515
vn 0.000000 0.560663 0.828044
vn 0.585515 0.560663 0.585515
vn 0.828043 0.560664 -0.000000
vn 0.706523 -0.040611 -0.706523
vn -0.000000 -0.040613 -0.999175
vn -0.706524 -0.040615 -0.706523
vn -0.999175 -0.040617 -0.000000
vn -0.706524 -0.040615 0.706523
vn 0.000000 -0.040613 0.999175
vn 0.706523 -0.040612 0.706523
vn 0.999175 -0.040610 0.000000
s 1
g polySurface45 pCylinder38
usemtl lambert5SG
f 1/1/1 2/2/2 10/3/3 9/4/4
f 2/2/2 3/5/5 11/6/6 10/3/3
f 3/5/5 4/7/7 12/8/8 11/6/6
f 4/7/7 5/9/9 13/10/10 12/8/8
f 5/9/9 6/11/11 14/12/12 13/10/10
f 6/11/11 7/13/13 15/14/14 14/12/12
f 7/15/13 8/16/15 16/17/16 15/18/14
f 8/16/15 1/1/1 9/4/4 16/17/16
f 19/19/17 18/20/18 20/21/19 21/22/20 22/23/21 23/24/22 24/25/23 25/26/24
f 9/4/4 10/3/3 17/27/25
f 10/3/3 11/6/6 17/27/25
f 11/6/6 12/8/8 17/27/25
f 12/8/8 13/10/10 17/27/25
f 13/10/10 14/12/12 17/27/25
f 14/12/12 15/14/14 17/27/25
f 15/18/14 16/17/16 17/27/25
f 16/17/16 9/4/4 17/27/25
f 26/28/26 28/29/27 2/2/2 1/1/1
f 28/29/27 30/30/28 3/5/5 2/2/2
f 30/30/28 32/31/29 4/7/7 3/5/5
f 32/31/29 34/32/30 5/9/9 4/7/7
f 34/32/30 36/33/31 6/11/11 5/9/9
f 36/33/31 38/34/32 7/13/13 6/11/11
f 38/35/32 40/36/33 8/16/15 7/15/13
f 40/36/33 26/28/26 1/1/1 8/16/15
f 26/28/26 27/37/34 29/38/35 28/29/27
f 27/37/34 19/39/17 25/40/24 29/38/35
f 28/29/27 29/38/35 31/41/36 30/30/28
f 29/38/35 25/40/24 24/42/23 31/41/36
f 30/30/28 31/41/36 33/43/37 32/31/29
f 31/41/36 24/42/23 23/44/22 33/43/37
f 32/31/29 33/43/37 35/45/38 34/32/30
f 33/43/37 23/44/22 22/46/21 35/45/38
f 34/32/30 35/45/38 37/47/39 36/33/31
f 35/45/38 22/46/21 21/48/20 37/47/39
f 36/33/31 37/47/39 39/49/40 38/34/32
f 37/47/39 21/48/20 20/50/19 39/49/40
f 38/35/32 39/51/40 41/52/41 40/36/33
f 39/51/40 20/53/19 18/54/18 41/52/41
f 19/39/17 27/37/34 41/52/41 18/54/18
f 27/37/34 26/28/26 40/36/33 41/52/41
